<svg xmlns="http://www.w3.org/2000/svg" viewBox="0 0 280 200">
  <rect width="280" height="200" fill="#f8f9fa" stroke="#a2a9b1" stroke-width="1"/>
  <!-- Leaf shape -->
  <path d="M140,30 C170,40 190,70 180,100 C170,120 150,125 140,125 C130,125 110,120 100,100 C90,70 110,40 140,30Z" fill="#66bb6a" stroke="#388e3c" stroke-width="1.5"/>
  <!-- Center vein -->
  <line x1="140" y1="35" x2="140" y2="125" stroke="#388e3c" stroke-width="1.5"/>
  <!-- Side veins -->
  <line x1="140" y1="55" x2="160" y2="50" stroke="#388e3c" stroke-width="0.8"/>
  <line x1="140" y1="55" x2="120" y2="50" stroke="#388e3c" stroke-width="0.8"/>
  <line x1="140" y1="72" x2="168" y2="65" stroke="#388e3c" stroke-width="0.8"/>
  <line x1="140" y1="72" x2="112" y2="65" stroke="#388e3c" stroke-width="0.8"/>
  <line x1="140" y1="90" x2="170" y2="85" stroke="#388e3c" stroke-width="0.8"/>
  <line x1="140" y1="90" x2="110" y2="85" stroke="#388e3c" stroke-width="0.8"/>
  <line x1="140" y1="108" x2="162" y2="105" stroke="#388e3c" stroke-width="0.8"/>
  <line x1="140" y1="108" x2="118" y2="105" stroke="#388e3c" stroke-width="0.8"/>
  <!-- Stem -->
  <path d="M140,125 C142,130 138,135 140,140" fill="none" stroke="#388e3c" stroke-width="2" stroke-linecap="round"/>
  <!-- Title -->
  <text x="140" y="170" text-anchor="middle" font-family="Linux Libertine, Georgia, serif" font-size="13" fill="#202122">Photosynthesis</text>
</svg>